<svg width="48" height="48" viewBox="0 0 48 48" fill="none" xmlns="http://www.w3.org/2000/svg">
<path d="M24 0C37.2548 0 48 10.7452 48 24C48 37.2548 37.2548 48 24 48C10.7452 48 0 37.2548 0 24C0 10.7452 10.7452 0 24 0ZM23.7988 11C20.3248 11 19.8883 11.015 18.5234 11.0771C17.161 11.1395 16.2308 11.3554 15.417 11.6719C14.5751 11.9988 13.8609 12.4367 13.1494 13.1484C12.4375 13.8598 11.9999 14.5735 11.6719 15.415C11.3546 16.2291 11.1385 17.1596 11.0771 18.5215C11.0161 19.8868 11 20.3238 11 23.7998C11 27.2761 11.0153 27.7118 11.0771 29.0771C11.1398 30.4396 11.3556 31.3698 11.6719 32.1836C11.9991 33.0254 12.4367 33.7397 13.1484 34.4512C13.8596 35.1631 14.5738 35.6018 15.415 35.9287C16.2294 36.2452 17.1602 36.4601 18.5225 36.5225C19.8876 36.5846 20.324 36.6006 23.7998 36.6006C27.276 36.6006 27.7111 36.5846 29.0762 36.5225C30.4387 36.4601 31.3702 36.2452 32.1846 35.9287C33.026 35.6018 33.7391 35.163 34.4502 34.4512C35.1622 33.7397 35.5997 33.0252 35.9277 32.1836C36.2424 31.3695 36.4585 30.4392 36.5225 29.0771C36.5838 27.7118 36.5996 27.2761 36.5996 23.7998C36.5996 20.324 36.5838 19.8876 36.5225 18.5225C36.4585 17.1598 36.2424 16.2289 35.9277 15.415C35.5998 14.5734 35.1621 13.8598 34.4502 13.1484C33.7382 12.4364 33.0263 11.9985 32.1836 11.6719C31.3677 11.3554 30.4367 11.1395 29.0742 11.0771C27.7094 11.015 27.2744 11 23.7988 11Z" fill="#F03F17"/>
<path d="M22.8525 13.5064C23.1932 13.5059 23.5738 13.5064 24.0009 13.5064C27.4186 13.5064 27.8242 13.5193 29.1738 13.5806C30.4213 13.6377 31.0986 13.8459 31.5497 14.0211C32.1471 14.2531 32.5737 14.5301 33.0214 14.9781C33.4694 15.4261 33.7459 15.8534 33.9785 16.4507C34.1536 16.9014 34.3631 17.5788 34.4199 18.8267C34.4812 20.1759 34.4941 20.5818 34.4941 23.9976C34.4941 27.4129 34.4812 27.8186 34.4199 29.1675C34.3628 30.4154 34.1536 31.0928 33.9785 31.5435C33.7465 32.1407 33.4693 32.5666 33.0214 33.0142C32.5734 33.4622 32.1474 33.7393 31.5497 33.9713C31.0991 34.1472 30.4215 34.3556 29.1738 34.4127C27.8244 34.474 27.4186 34.4879 24.0009 34.4879C20.5834 34.4879 20.1782 34.474 18.829 34.4127C17.581 34.3551 16.9036 34.1465 16.4521 33.9713C15.8549 33.7393 15.4283 33.4621 14.9804 33.0142C14.5324 32.5662 14.2549 32.1401 14.0224 31.5425C13.8472 31.0919 13.6378 30.4144 13.581 29.1666C13.5197 27.8175 13.5078 27.4116 13.5078 23.9937C13.5078 20.5758 13.5197 20.1721 13.581 18.8228C13.6381 17.5751 13.8472 16.898 14.0224 16.4468C14.2544 15.8495 14.5324 15.4231 14.9804 14.9752C15.4284 14.5272 15.8548 14.2497 16.4521 14.0172C16.9033 13.8411 17.581 13.6331 18.829 13.5757C20.0097 13.5224 20.4673 13.5061 22.8525 13.5035V13.5064ZM24.0009 17.4263C20.3709 17.4265 17.4277 20.3705 17.4277 24.0005C17.4279 27.6304 20.371 30.5717 24.0009 30.5718C27.6309 30.5718 30.573 27.6305 30.5732 24.0005C30.5732 20.3704 27.6311 17.4263 24.0009 17.4263ZM30.8339 15.6314C29.9859 15.6314 29.2978 16.3193 29.2978 17.1675C29.2978 18.0155 29.9859 18.7037 30.8339 18.7037C31.6819 18.7036 32.37 18.0155 32.3701 17.1675C32.3701 16.3196 31.6819 15.6315 30.8339 15.6314Z" fill="#F03F17"/>
<path d="M24.0012 19.7334C26.3575 19.7334 28.2679 21.6436 28.2679 24.0001C28.2679 26.3564 26.3575 28.2668 24.0012 28.2668C21.6447 28.2668 19.7345 26.3564 19.7345 24.0001C19.7345 21.6436 21.6447 19.7334 24.0012 19.7334Z" fill="#F03F17"/>
</svg>
