<svg width="48" height="48" viewBox="0 0 48 48" fill="none" xmlns="http://www.w3.org/2000/svg">
<path d="M24 0C37.2548 0 48 10.7452 48 24C48 37.2548 37.2548 48 24 48C10.7452 48 0 37.2548 0 24C0 10.7452 10.7452 0 24 0ZM30.9111 25.4492C30.3584 24.6001 29.1988 24.344 28.3193 24.8779C25.6912 26.4732 22.3072 26.4728 19.6807 24.8779C18.8012 24.3437 17.6405 24.5999 17.0889 25.4492C16.536 26.2974 16.7999 27.4169 17.6777 27.9512C18.8378 28.6537 20.0974 29.1532 21.4033 29.4404L17.8164 32.9033C17.0834 33.6119 17.0835 34.7603 17.8174 35.4688C18.1847 35.8225 18.6651 35.9999 19.1455 36C19.6268 36 20.1082 35.8224 20.4756 35.4688L23.999 32.0664L27.5254 35.4688C28.2586 36.1772 29.4486 36.1772 30.1826 35.4688C30.9173 34.7603 30.9171 33.6111 30.1826 32.9033L26.5957 29.4404C27.9016 29.1533 29.1613 28.6544 30.3213 27.9512C31.1991 27.4169 31.4641 26.2967 30.9111 25.4492ZM23.9834 12C20.4453 12.0002 17.5675 14.7781 17.5674 18.1934C17.5674 21.6076 20.4452 24.3856 23.9834 24.3857C27.5225 24.3857 30.3994 21.6077 30.3994 18.1934C30.3993 14.778 27.5224 12 23.9834 12Z" fill="#F03F17"/>
<path d="M23.9837 15.6296C25.4486 15.6296 26.6402 16.7795 26.6402 18.1936C26.6402 19.6065 25.4486 20.7571 23.9837 20.7571C22.52 20.7571 21.3272 19.6065 21.3272 18.1936C21.3272 16.7795 22.52 15.6296 23.9837 15.6296Z" fill="#F03F17"/>
</svg>
