<svg width="39" height="26" viewBox="0 0 39 26" fill="none" xmlns="http://www.w3.org/2000/svg">
<path d="M4.8 0C2.14903 0 0 1.87796 0 4.19455V12.5837C0 14.9002 2.14903 16.7782 4.8 16.7782L4.8 4.19455H28.8C28.8 1.87796 26.651 0 24 0H4.8Z" fill="#13335C"/>
<path fill-rule="evenodd" clip-rule="evenodd" d="M9.6 12.5837C9.6 10.2671 11.749 8.3891 14.4 8.3891H33.6C36.251 8.3891 38.4 10.2671 38.4 12.5837V20.9728C38.4 23.2893 36.251 25.1673 33.6 25.1673H14.4C11.749 25.1673 9.6 23.2893 9.6 20.9728V12.5837ZM24 20.9728C26.651 20.9728 28.8 19.0948 28.8 16.7782C28.8 14.4616 26.651 12.5837 24 12.5837C21.349 12.5837 19.2 14.4616 19.2 16.7782C19.2 19.0948 21.349 20.9728 24 20.9728Z" fill="#13335C"/>
</svg>
