<svg width="48" height="48" viewBox="0 0 48 48" fill="none" xmlns="http://www.w3.org/2000/svg">
<path fill-rule="evenodd" clip-rule="evenodd" d="M24 4.7998C18.6981 4.7998 14.4 9.09787 14.4 14.3998V16.7998H12C10.7771 16.7998 9.74975 17.7193 9.6147 18.9348L7.2147 40.5348C7.13932 41.2133 7.35643 41.8917 7.81172 42.4004C8.267 42.9091 8.91736 43.1998 9.60002 43.1998H38.4C39.0827 43.1998 39.733 42.9091 40.1883 42.4004C40.6436 41.8917 40.8607 41.2133 40.7853 40.5348L38.3853 18.9348C38.2503 17.7193 37.2229 16.7998 36 16.7998H33.6V14.3998C33.6 9.09787 29.3019 4.7998 24 4.7998ZM28.8 16.7998V14.3998C28.8 11.7488 26.651 9.5998 24 9.5998C21.349 9.5998 19.2 11.7488 19.2 14.3998V16.7998H28.8ZM14.4 23.9998C14.4 22.6743 15.4745 21.5998 16.8 21.5998C18.1255 21.5998 19.2 22.6743 19.2 23.9998C19.2 25.3253 18.1255 26.3998 16.8 26.3998C15.4745 26.3998 14.4 25.3253 14.4 23.9998ZM31.2 21.5998C29.8745 21.5998 28.8 22.6743 28.8 23.9998C28.8 25.3253 29.8745 26.3998 31.2 26.3998C32.5255 26.3998 33.6 25.3253 33.6 23.9998C33.6 22.6743 32.5255 21.5998 31.2 21.5998Z" fill="#13335C"/>
</svg>
