<svg width="45" height="45" viewBox="0 0 45 45" fill="none" xmlns="http://www.w3.org/2000/svg">
<path d="M42.1875 39.3751H41.1328C41.0395 39.3751 40.9501 39.338 40.8842 39.2721C40.8183 39.2062 40.7812 39.1167 40.7812 39.0235V24.039C40.782 23.9831 40.7695 23.9278 40.7446 23.8777C40.7197 23.8276 40.6832 23.7841 40.6382 23.7509C40.5932 23.7178 40.5409 23.6958 40.4856 23.6869C40.4304 23.678 40.3739 23.6824 40.3207 23.6998C39.5142 23.9532 38.6766 24.0946 37.8316 24.1199C37.7279 24.1199 37.6295 24.1243 37.5328 24.1243C35.9074 24.1281 34.3082 23.7154 32.8878 22.9254C32.7802 22.8656 32.6592 22.8343 32.5362 22.8343C32.4132 22.8343 32.2922 22.8656 32.1846 22.9254C30.7645 23.7154 29.1656 24.1281 27.5405 24.1243C25.9245 24.1266 24.3357 23.7089 22.9298 22.9123C22.8213 22.8509 22.6988 22.8186 22.5742 22.8186C22.4496 22.8186 22.3272 22.8509 22.2187 22.9123C20.7916 23.7119 19.1823 24.1297 17.5465 24.1252C15.9196 24.1262 14.3208 23.702 12.9085 22.8947C12.7992 22.8325 12.6756 22.7998 12.5499 22.7998C12.4241 22.7998 12.3006 22.8325 12.1913 22.8947C10.7789 23.702 9.18011 24.1262 7.55329 24.1252C7.45749 24.1252 7.36081 24.1252 7.2571 24.1208H7.25183C6.37713 24.0945 5.51063 23.9439 4.67839 23.6734C4.62569 23.6564 4.5697 23.652 4.51501 23.6607C4.46031 23.6694 4.40844 23.6909 4.36363 23.7235C4.31883 23.7561 4.28234 23.7987 4.25716 23.8481C4.23198 23.8974 4.21881 23.952 4.21872 24.0074V39.0235C4.21872 39.1167 4.18168 39.2062 4.11575 39.2721C4.04982 39.338 3.9604 39.3751 3.86716 39.3751H2.85642C2.09704 39.3751 1.44138 39.9586 1.40798 40.718C1.39943 40.9078 1.42942 41.0973 1.49615 41.2752C1.56287 41.4531 1.66494 41.6156 1.79619 41.7529C1.92745 41.8903 2.08517 41.9996 2.25984 42.0743C2.43451 42.149 2.6225 42.1875 2.81247 42.1876H42.1435C42.9029 42.1876 43.5586 41.604 43.592 40.8446C43.6005 40.6548 43.5705 40.4653 43.5038 40.2874C43.4371 40.1095 43.335 39.947 43.2038 39.8097C43.0725 39.6724 42.9148 39.563 42.7401 39.4883C42.5654 39.4136 42.3774 39.3751 42.1875 39.3751ZM19.6875 33.3985C19.6875 33.4917 19.6504 33.5812 19.5845 33.6471C19.5186 33.713 19.4291 33.7501 19.3359 33.7501H11.6015C11.5083 33.7501 11.4189 33.713 11.3529 33.6471C11.287 33.5812 11.25 33.4917 11.25 33.3985V27.7735C11.25 27.4938 11.3611 27.2255 11.5589 27.0277C11.7567 26.8299 12.0249 26.7188 12.3047 26.7188H18.6328C18.9125 26.7188 19.1808 26.8299 19.3786 27.0277C19.5764 27.2255 19.6875 27.4938 19.6875 27.7735V33.3985ZM33.3984 39.3751H27.0703C26.977 39.3751 26.8876 39.338 26.8217 39.2721C26.7558 39.2062 26.7187 39.1167 26.7187 39.0235V27.7735C26.7187 27.4938 26.8298 27.2255 27.0276 27.0277C27.2254 26.8299 27.4937 26.7188 27.7734 26.7188H32.6953C32.975 26.7188 33.2433 26.8299 33.4411 27.0277C33.6389 27.2255 33.75 27.4938 33.75 27.7735V39.0235C33.75 39.1167 33.7129 39.2062 33.647 39.2721C33.5811 39.338 33.4916 39.3751 33.3984 39.3751Z" fill="#13335C"/>
<path d="M43.2923 14.966L39.52 6.30967C38.5322 4.18535 36.276 2.8125 33.772 2.8125H11.2237C8.71966 2.8125 6.4635 4.18535 5.47561 6.30967L1.70335 14.966C0.912331 16.672 1.95735 18.4236 1.95823 18.4245L1.98284 18.4641C2.02591 18.5326 2.10237 18.6398 2.14895 18.7084C2.15335 18.7137 2.15686 18.7198 2.16126 18.726L2.60071 19.2577C2.61714 19.2778 2.63475 19.2969 2.65344 19.3148L3.0929 19.7394L3.12981 19.771C3.38789 19.9922 3.66394 20.1915 3.9551 20.3669V20.3713C4.91163 20.9507 6.00139 21.2737 7.11917 21.3091C7.19124 21.3091 7.26331 21.3091 7.33626 21.3091C9.02751 21.3122 10.6571 20.6744 11.8969 19.524L11.9259 19.4968C12.0554 19.3748 12.2266 19.3068 12.4045 19.3068C12.5824 19.3068 12.7536 19.3748 12.883 19.4968L12.912 19.524C14.165 20.6724 15.8029 21.3095 17.5026 21.3095C19.2022 21.3095 20.8401 20.6724 22.0931 19.524C22.2231 19.4037 22.3937 19.3368 22.5708 19.3368C22.7479 19.3368 22.9185 19.4037 23.0485 19.524C24.2977 20.6688 25.9296 21.3055 27.6241 21.3093C29.3185 21.313 30.9532 20.6835 32.2075 19.5442C32.3356 19.4256 32.5037 19.3597 32.6782 19.3597C32.8527 19.3597 33.0208 19.4256 33.1489 19.5442C34.4045 20.6904 36.0463 21.3207 37.7464 21.3091H37.9653C39.055 21.2684 40.1152 20.9443 41.0414 20.3687C41.1249 20.3186 41.2049 20.2658 41.2858 20.2131C41.9104 19.792 42.4541 19.2617 42.8907 18.6478L43.0436 18.4166C43.0588 18.3932 43.0729 18.3686 43.0858 18.3428C43.2317 18.0457 44.0139 16.5182 43.2923 14.966Z" fill="#13335C"/>
</svg>
