<svg width="48" height="48" viewBox="0 0 48 48" fill="none" xmlns="http://www.w3.org/2000/svg">
<path d="M24 0C37.2548 0 48 10.7452 48 24C48 37.2548 37.2548 48 24 48C10.7452 48 0 37.2548 0 24C0 10.7452 10.7452 0 24 0ZM15.2373 10.7451C14.6311 10.2519 13.8544 10.166 12.9971 10.498C12.0925 10.8491 10.3966 12.2154 9.67188 13.1689C9.01831 14.0322 8.76651 14.6439 8.72852 15.4502C8.69538 16.1143 8.75299 16.3901 9.10352 17.2393C11.8461 23.8995 15.9382 29.2174 21.5605 33.4395C24.4972 35.6452 27.5429 37.3246 30.7021 38.4727C32.5447 39.1415 33.3455 39.1742 34.2881 38.624C34.686 38.3867 35.6713 37.3768 36.2207 36.6416C37.1302 35.4176 37.4668 34.853 37.5615 34.4023C37.6278 34.0941 37.5752 33.5584 37.4521 33.2168C37.3954 33.0508 37.2627 32.7946 37.168 32.6475C36.5711 31.7462 33.3647 29.2358 31.7637 28.415C30.8495 27.9455 30.172 27.7895 29.6699 27.9365C29.13 28.0884 28.846 28.3398 27.9414 29.4639C27.5767 29.9145 27.202 30.337 27.1025 30.4033C26.8562 30.5741 26.3732 30.7119 26.0322 30.7119C25.2412 30.7071 23.8058 30.1942 22.7021 29.5205C21.8449 28.9988 20.7464 28.0646 19.9033 27.1396C18.9086 26.0534 18.2306 25.0952 17.6953 24.0137C17.0038 22.6237 16.8283 21.7738 17.1172 21.1523C17.1882 20.996 17.2835 20.8308 17.3262 20.7783C17.3688 20.731 17.8141 20.3653 18.3066 19.9668C19.273 19.1983 19.4294 19.0227 19.6094 18.4961C19.8367 17.8272 19.7753 17.1438 19.4248 16.4561C19.1548 15.9342 18.449 14.7958 17.9375 14.0605C17.2604 13.0931 15.5744 11.0261 15.2373 10.7451ZM24.5742 9.65137C23.7515 9.54601 23.5649 9.55325 23.3125 9.72168C22.8236 10.0409 22.8307 10.8371 23.3213 11.1514C23.4836 11.2512 23.6284 11.2879 24.2861 11.374C25.2963 11.51 25.946 11.6383 26.7168 11.8486C29.7397 12.675 32.065 14.3637 33.6191 16.8711C34.9197 18.961 35.4595 21.0513 35.3828 23.7207C35.3562 24.6232 35.3757 24.7822 35.5137 24.999C35.778 25.4028 36.4737 25.4825 36.8311 25.1475C37.0534 24.9431 37.0959 24.7898 37.1396 24.0176C37.1606 23.6148 37.1649 23.0201 37.1553 22.6953C37.0946 21.0519 36.8182 19.7031 36.2412 18.2002C35.6716 16.722 35.0946 15.7569 34.0059 14.4521C32.9767 13.229 32.1771 12.5304 30.9092 11.7529C29.1401 10.6696 26.987 9.95288 24.5742 9.65137ZM26.3564 13.2715C25.8003 13.161 24.7763 13.0718 24.6006 13.123C24.4349 13.1705 24.2002 13.3494 24.0957 13.5117C23.9852 13.6877 23.9604 14.0813 24.0547 14.3086C24.2069 14.6884 24.49 14.8223 25.2822 14.8916C26.5043 14.9985 27.7654 15.4279 28.7178 16.0635C29.805 16.7872 30.6693 17.7773 31.2285 18.9404C31.7116 19.9398 32.0082 21.3802 32 22.6699C31.9973 23.1364 32.0702 23.4002 32.2578 23.5928C32.541 23.8887 32.9532 23.9534 33.3174 23.7568C33.7211 23.5445 33.8152 23.1717 33.7441 22.0273C33.5751 19.1222 32.4389 16.7852 30.4053 15.1406C29.2594 14.2165 27.8746 13.5805 26.3564 13.2715ZM26.665 16.9463C25.8367 16.7454 25.5018 16.7683 25.2021 17.042C24.923 17.2984 24.8689 17.8125 25.082 18.1455C25.2321 18.3872 25.4053 18.4739 25.8867 18.5684C26.5277 18.6863 26.971 18.8399 27.374 19.0703C28.2292 19.5643 28.6273 20.3377 28.6699 21.5889C28.6899 22.1761 28.7411 22.3571 28.9463 22.5654C29.3267 22.9459 30.0029 22.8716 30.29 22.416C30.3954 22.2442 30.4117 22.1694 30.4229 21.7705C30.4302 21.5235 30.4201 21.1554 30.3945 20.958C30.2778 20.0099 29.9863 19.2649 29.4688 18.6055C28.7966 17.7562 27.9367 17.248 26.665 16.9463Z" fill="#F03F17"/>
</svg>
