<svg width="332" height="322" viewBox="0 0 332 322" fill="none" xmlns="http://www.w3.org/2000/svg">
<path d="M95.0486 374.187C94.2183 372.274 92.9392 370.558 92.669 368.407C92.3045 365.487 92.7639 358.327 93.0571 355.118C95.1866 331.683 105.786 309.824 124.047 291.555C133.17 282.423 143.943 274.512 155.175 267.776C147.416 269.739 139.681 271.787 131.761 272.705C114.055 274.757 89.1692 273.393 84.7087 255.05C84.3387 253.528 84.747 251.672 83.9001 250.29C83.1975 249.822 78.018 251.107 76.5981 251.225C45.3247 253.787 16.3018 232.177 5.60187 207.699C-5.45524 182.393 1.0326 155.439 14.8115 129.967C19.7432 120.85 28.1831 107.843 36.6019 101.066C39.8929 98.4174 42.7633 99.1766 42.5529 103.167C42.1562 110.723 38.9174 121.142 37.8487 129.255C36.4425 139.953 34.1515 165.241 40.0178 173.735C43.8391 179.264 48.902 177.401 50.0697 170.892C51.8044 161.246 50.7354 153.926 54.7221 143.663C56.0426 140.265 60.48 130.866 63.8647 129.265C69.1123 126.787 68.5869 136.295 69.015 138.957C71.5322 154.641 73.0765 167.294 85.6699 178.701C95.8059 187.886 107.814 195.811 110.293 209.919C110.513 211.173 110.566 216.988 111.01 217.284C123.066 216.03 134.576 217.947 145.488 221.542C149.016 222.703 153.286 225.164 156.534 225.98C156.979 226.092 157.316 226.369 157.844 226.036C160.887 215.814 165.67 206.049 172.588 197.15C172.695 196.083 162.037 190.039 160.372 188.281C156.455 184.148 161.069 176.294 167.559 176.531C168.21 176.554 170.818 177.038 171.166 177.27L182.704 184.96C182.875 184.558 183.671 184.461 183.765 184.35L206.717 157.494L206.631 156.646L194.921 148.841C194.697 148.692 193.527 146.405 193.386 145.937C191.633 140.094 199.167 134.657 204.979 137.224C207.121 138.171 216.186 145.199 217.311 144.826C222.975 138.969 229.226 133.635 236.271 129.231C237.506 128.457 244.857 124.663 244.894 124.202C234.38 113.58 224.872 101.858 222.357 87.0136C219.424 87.156 216.249 88.2964 213.192 88.5719C190.656 90.6135 176.437 73.0372 155.219 70.9936C147.469 70.2442 139.417 71.2159 131.573 72.1007C128.685 72.4254 117.478 74.583 115.734 74.169C109.921 72.7921 116.295 67.3395 118.676 65.2431C125.828 58.9552 136.116 54.204 145.159 51.0103C149.03 49.6436 163.054 47.1877 160.091 41.4395C159.062 39.4421 157.027 39.0656 154.813 38.6014C141.792 35.8723 110.102 47.5568 96.8581 52.7619C91.5576 54.8461 84.4634 58.7067 79.3103 60.1567C71.5483 62.3444 74.842 56.2828 77.2816 52.7766C92.6206 30.7417 128.199 7.66372 155.578 1.94745C192.159 -5.6926 234.153 9.55049 247.351 40.5678C249.347 45.2543 249.941 49.9608 250.852 54.936C254.169 54.8756 257.438 54.0298 260.762 54.3851C282.708 56.7459 288.431 83.2393 289.509 100.171L289.157 111.007C298.447 86.6375 314.257 62.951 338.415 47.6578C347.904 41.6524 374.012 29.725 384.769 29.9285C386.168 29.9548 387.438 30.4744 388.834 30.4352L392.967 33.1898C396.106 38.1381 396.17 44.1353 390.861 48.7852C387.121 52.0617 378.132 53.2685 373.189 54.9218C346.365 63.8907 327.754 82.3163 316.57 105.972C315.725 107.759 311.187 118.445 311.672 119.459L322.338 124.697C339.542 102.44 362.145 83.355 390.263 74.427C403.456 70.2367 427.022 67.0904 440.145 69.2763C450.733 71.0432 453.337 81.805 444.697 88.7714C439.59 92.8871 427.628 90.7159 421.164 90.9921C387.496 92.4478 359.089 111.506 340.865 138.105C341.165 139.184 343.259 142.44 344.492 142.097C345.803 141.733 352.458 136.331 354.377 135.091C390.658 111.659 428.77 125.442 448.278 155.401C456.056 167.346 439.365 179.185 429.338 170.657C425.661 167.532 422.335 162.012 418.525 158.392C400.683 141.431 382 140.545 360.512 157.491C359.065 158.634 354.745 161.936 354.646 163.387C354.56 164.626 356.109 168.62 356.365 170.282C359.823 192.651 353.372 210.035 338.261 229.382C325.589 245.607 310.739 263.325 296.399 278.396C280.035 295.596 261.904 305.558 237.807 308.371C236.382 308.539 230.893 308.421 230.143 308.786C228.189 309.738 224.137 318.066 223.117 320.322C212.055 344.822 225.57 357.992 248.558 366.744C251.625 367.913 255.753 368.636 258.521 369.996C270.864 376.067 262.706 393.304 248.423 390.623C234.303 387.973 215.968 378.071 206.878 368.472C190.339 351.004 192.03 326.954 204.947 305.698L199.149 303.93C191.661 310.985 185.055 319.107 179.835 327.599C167.92 346.974 164.516 367.221 170.442 387.247C171.919 392.242 176.513 399.518 174.229 404.72C169.849 414.71 156.468 416.009 151.422 407.118C146.531 398.5 143.326 380.977 143.027 370.872C142.185 342.689 158.218 314.599 178.949 292.39L178.857 291.543L170.837 284.254C163.79 287.666 156.988 292.254 150.94 297.091C131.322 312.791 119.545 331.709 117.409 354.482C116.744 361.579 119.134 369.58 111.668 374.963C107.639 377.868 103.62 377.777 99.189 376.952L95.0561 374.198L95.0486 374.187Z" fill="#FC8F76"/>
</svg>
